<svg width="1152" height="700" viewBox="0 0 1152 700" fill="none" xmlns="http://www.w3.org/2000/svg">
<g clip-path="url(#clip0)">
<rect width="1152" height="700" fill="white"/>
<rect y="-11" width="1176" height="716.843" fill="#042C54"/>
<mask id="mask0" style="mask-type:alpha" maskUnits="userSpaceOnUse" x="0" y="-6" width="1176" height="717">
<rect y="-5.84286" width="1176" height="716.843" fill="#FF0000"/>
</mask>
<g mask="url(#mask0)">
<g filter="url(#filter0_f)">
<ellipse cx="1291.09" cy="754.32" rx="313.097" ry="287.769" fill="#1B78DE"/>
</g>
<g filter="url(#filter1_f)">
<ellipse cx="-80.9128" cy="-84.2315" rx="291.99" ry="211.443" fill="#0F4279"/>
</g>
</g>
<path d="M294.357 55.7568H283.3V47.2475H294.357V55.7568ZM280.536 55.7568H269.48V41.5746H280.536V55.7568ZM294.357 44.4111H283.3V30.2289H294.357V44.4111ZM280.536 38.7382H269.48V30.2289H280.536V38.7382Z" fill="#A367D0"/>
<path d="M46.1866 55H57.0326C59.5373 55 61.396 54.3143 62.6086 52.943C63.8326 51.5603 64.4446 49.7753 64.4446 47.588C64.4446 46.4093 64.1556 45.327 63.5776 44.341C63.011 43.3437 62.1553 42.607 61.0106 42.131C61.736 41.689 62.3026 41.0657 62.7106 40.261C63.1186 39.4563 63.3226 38.4987 63.3226 37.388C63.3226 36.3113 63.0733 35.246 62.5746 34.192C62.076 33.138 61.2883 32.2653 60.2116 31.574C59.135 30.8713 57.724 30.52 55.9786 30.52H46.1866V55ZM50.8786 40.074V34.838H55.9106C56.7946 34.838 57.469 35.093 57.9336 35.603C58.3983 36.113 58.6306 36.742 58.6306 37.49C58.6306 38.3853 58.37 39.0427 57.8486 39.462C57.3386 39.87 56.6926 40.074 55.9106 40.074H50.8786ZM50.8786 50.648V44.392H56.5566C57.6333 44.392 58.438 44.681 58.9706 45.259C59.5146 45.8257 59.7866 46.5453 59.7866 47.418C59.7866 48.404 59.4806 49.1917 58.8686 49.781C58.268 50.359 57.4973 50.648 56.5566 50.648H50.8786ZM77.7971 55.51C79.7691 55.51 81.5031 55.1133 82.9991 54.32C84.4951 53.5153 85.6624 52.3877 86.5011 50.937C87.3397 49.4863 87.7591 47.7807 87.7591 45.82V30.52H83.0671V45.786C83.0671 46.84 82.8347 47.7693 82.3701 48.574C81.9054 49.3787 81.2764 50.0133 80.4831 50.478C79.6897 50.9313 78.7944 51.158 77.7971 51.158C76.8224 51.158 75.9327 50.937 75.1281 50.495C74.3347 50.0417 73.7001 49.4127 73.2241 48.608C72.7594 47.8033 72.5271 46.8627 72.5271 45.786V30.52L67.8351 30.554V45.82C67.8351 47.7807 68.2544 49.4863 69.0931 50.937C69.9317 52.3877 71.0991 53.5153 72.5951 54.32C74.0911 55.1133 75.8251 55.51 77.7971 55.51ZM103.011 55.51C105.822 55.51 108.179 54.813 110.083 53.419C111.998 52.025 113.347 50.138 114.129 47.758L109.471 46.466C109.018 47.9393 108.253 49.0897 107.176 49.917C106.099 50.7443 104.711 51.158 103.011 51.158C100.688 51.158 98.9367 50.3987 97.758 48.88C96.5907 47.35 96.007 45.31 96.007 42.76C96.007 40.21 96.5907 38.1757 97.758 36.657C98.9367 35.127 100.688 34.362 103.011 34.362C104.711 34.362 106.099 34.7757 107.176 35.603C108.253 36.419 109.018 37.5693 109.471 39.054L114.129 37.762C113.347 35.382 111.998 33.495 110.083 32.101C108.179 30.707 105.822 30.01 103.011 30.01C100.563 30.01 98.4493 30.5427 96.67 31.608C94.902 32.6733 93.5363 34.1637 92.573 36.079C91.621 37.9943 91.145 40.2213 91.145 42.76C91.145 45.2987 91.621 47.5257 92.573 49.441C93.5363 51.3563 94.902 52.8467 96.67 53.912C98.4493 54.9773 100.563 55.51 103.011 55.51ZM117.872 55H122.496V43.848L132.254 55H138.102L127.222 42.59L137.456 30.52H131.812L122.496 41.808V30.52H117.872V55ZM140.484 55H156.464V50.682H145.108V44.392H154.424V40.074H145.108V34.838H156.464V30.52H140.484V55ZM166.216 55H170.84V34.838H178.558V30.52H158.498V34.838H166.216V55ZM187.408 55H202.572V50.682H192.032V30.52H187.408V55ZM205.802 55H210.426V30.52H205.802V55ZM224.771 55.51C226.017 55.51 227.224 55.3513 228.392 55.034C229.57 54.7167 230.624 54.2407 231.554 53.606C232.483 52.96 233.22 52.1497 233.764 51.175C234.319 50.189 234.597 49.0387 234.597 47.724C234.597 46.4887 234.364 45.4687 233.9 44.664C233.446 43.8593 232.863 43.2133 232.149 42.726C231.446 42.2273 230.709 41.842 229.939 41.57C229.168 41.2867 228.465 41.06 227.831 40.89L223.581 39.734C223.059 39.598 222.549 39.428 222.051 39.224C221.552 39.02 221.138 38.7537 220.81 38.425C220.481 38.085 220.317 37.6487 220.317 37.116C220.317 36.538 220.515 36.0393 220.912 35.62C221.32 35.2007 221.841 34.8833 222.476 34.668C223.122 34.4413 223.807 34.3393 224.533 34.362C225.643 34.396 226.663 34.7247 227.593 35.348C228.522 35.9713 229.123 36.878 229.395 38.068L234.393 37.218C233.803 34.9173 232.659 33.155 230.959 31.931C229.259 30.707 227.139 30.078 224.601 30.044C222.923 30.0327 221.393 30.2933 220.011 30.826C218.628 31.3587 217.523 32.169 216.696 33.257C215.868 34.345 215.455 35.7107 215.455 37.354C215.455 38.5213 215.647 39.4903 216.033 40.261C216.429 41.0203 216.922 41.6323 217.512 42.097C218.101 42.5617 218.707 42.9187 219.331 43.168C219.965 43.4173 220.521 43.61 220.997 43.746L227.355 45.616C228.307 45.8993 228.941 46.2563 229.259 46.687C229.576 47.1063 229.735 47.5653 229.735 48.064C229.735 48.744 229.502 49.3163 229.038 49.781C228.584 50.2457 228.001 50.597 227.287 50.835C226.573 51.073 225.836 51.192 225.077 51.192C223.717 51.192 222.504 50.8123 221.439 50.053C220.373 49.2937 219.671 48.2113 219.331 46.806L214.503 47.52C214.752 49.1747 215.341 50.6027 216.271 51.804C217.211 52.994 218.407 53.912 219.858 54.558C221.32 55.1927 222.957 55.51 224.771 55.51ZM244.011 55H248.635V34.838H256.353V30.52H236.293V34.838H244.011V55Z" fill="white"/>
<path d="M46.1866 55H57.0326C59.5373 55 61.396 54.3143 62.6086 52.943C63.8326 51.5603 64.4446 49.7753 64.4446 47.588C64.4446 46.4093 64.1556 45.327 63.5776 44.341C63.011 43.3437 62.1553 42.607 61.0106 42.131C61.736 41.689 62.3026 41.0657 62.7106 40.261C63.1186 39.4563 63.3226 38.4987 63.3226 37.388C63.3226 36.3113 63.0733 35.246 62.5746 34.192C62.076 33.138 61.2883 32.2653 60.2116 31.574C59.135 30.8713 57.724 30.52 55.9786 30.52H46.1866V55ZM50.8786 40.074V34.838H55.9106C56.7946 34.838 57.469 35.093 57.9336 35.603C58.3983 36.113 58.6306 36.742 58.6306 37.49C58.6306 38.3853 58.37 39.0427 57.8486 39.462C57.3386 39.87 56.6926 40.074 55.9106 40.074H50.8786ZM50.8786 50.648V44.392H56.5566C57.6333 44.392 58.438 44.681 58.9706 45.259C59.5146 45.8257 59.7866 46.5453 59.7866 47.418C59.7866 48.404 59.4806 49.1917 58.8686 49.781C58.268 50.359 57.4973 50.648 56.5566 50.648H50.8786ZM77.7971 55.51C79.7691 55.51 81.5031 55.1133 82.9991 54.32C84.4951 53.5153 85.6624 52.3877 86.5011 50.937C87.3397 49.4863 87.7591 47.7807 87.7591 45.82V30.52H83.0671V45.786C83.0671 46.84 82.8347 47.7693 82.3701 48.574C81.9054 49.3787 81.2764 50.0133 80.4831 50.478C79.6897 50.9313 78.7944 51.158 77.7971 51.158C76.8224 51.158 75.9327 50.937 75.1281 50.495C74.3347 50.0417 73.7001 49.4127 73.2241 48.608C72.7594 47.8033 72.5271 46.8627 72.5271 45.786V30.52L67.8351 30.554V45.82C67.8351 47.7807 68.2544 49.4863 69.0931 50.937C69.9317 52.3877 71.0991 53.5153 72.5951 54.32C74.0911 55.1133 75.8251 55.51 77.7971 55.51ZM103.011 55.51C105.822 55.51 108.179 54.813 110.083 53.419C111.998 52.025 113.347 50.138 114.129 47.758L109.471 46.466C109.018 47.9393 108.253 49.0897 107.176 49.917C106.099 50.7443 104.711 51.158 103.011 51.158C100.688 51.158 98.9367 50.3987 97.758 48.88C96.5907 47.35 96.007 45.31 96.007 42.76C96.007 40.21 96.5907 38.1757 97.758 36.657C98.9367 35.127 100.688 34.362 103.011 34.362C104.711 34.362 106.099 34.7757 107.176 35.603C108.253 36.419 109.018 37.5693 109.471 39.054L114.129 37.762C113.347 35.382 111.998 33.495 110.083 32.101C108.179 30.707 105.822 30.01 103.011 30.01C100.563 30.01 98.4493 30.5427 96.67 31.608C94.902 32.6733 93.5363 34.1637 92.573 36.079C91.621 37.9943 91.145 40.2213 91.145 42.76C91.145 45.2987 91.621 47.5257 92.573 49.441C93.5363 51.3563 94.902 52.8467 96.67 53.912C98.4493 54.9773 100.563 55.51 103.011 55.51ZM117.872 55H122.496V43.848L132.254 55H138.102L127.222 42.59L137.456 30.52H131.812L122.496 41.808V30.52H117.872V55ZM140.484 55H156.464V50.682H145.108V44.392H154.424V40.074H145.108V34.838H156.464V30.52H140.484V55ZM166.216 55H170.84V34.838H178.558V30.52H158.498V34.838H166.216V55ZM187.408 55H202.572V50.682H192.032V30.52H187.408V55ZM205.802 55H210.426V30.52H205.802V55ZM224.771 55.51C226.017 55.51 227.224 55.3513 228.392 55.034C229.57 54.7167 230.624 54.2407 231.554 53.606C232.483 52.96 233.22 52.1497 233.764 51.175C234.319 50.189 234.597 49.0387 234.597 47.724C234.597 46.4887 234.364 45.4687 233.9 44.664C233.446 43.8593 232.863 43.2133 232.149 42.726C231.446 42.2273 230.709 41.842 229.939 41.57C229.168 41.2867 228.465 41.06 227.831 40.89L223.581 39.734C223.059 39.598 222.549 39.428 222.051 39.224C221.552 39.02 221.138 38.7537 220.81 38.425C220.481 38.085 220.317 37.6487 220.317 37.116C220.317 36.538 220.515 36.0393 220.912 35.62C221.32 35.2007 221.841 34.8833 222.476 34.668C223.122 34.4413 223.807 34.3393 224.533 34.362C225.643 34.396 226.663 34.7247 227.593 35.348C228.522 35.9713 229.123 36.878 229.395 38.068L234.393 37.218C233.803 34.9173 232.659 33.155 230.959 31.931C229.259 30.707 227.139 30.078 224.601 30.044C222.923 30.0327 221.393 30.2933 220.011 30.826C218.628 31.3587 217.523 32.169 216.696 33.257C215.868 34.345 215.455 35.7107 215.455 37.354C215.455 38.5213 215.647 39.4903 216.033 40.261C216.429 41.0203 216.922 41.6323 217.512 42.097C218.101 42.5617 218.707 42.9187 219.331 43.168C219.965 43.4173 220.521 43.61 220.997 43.746L227.355 45.616C228.307 45.8993 228.941 46.2563 229.259 46.687C229.576 47.1063 229.735 47.5653 229.735 48.064C229.735 48.744 229.502 49.3163 229.038 49.781C228.584 50.2457 228.001 50.597 227.287 50.835C226.573 51.073 225.836 51.192 225.077 51.192C223.717 51.192 222.504 50.8123 221.439 50.053C220.373 49.2937 219.671 48.2113 219.331 46.806L214.503 47.52C214.752 49.1747 215.341 50.6027 216.271 51.804C217.211 52.994 218.407 53.912 219.858 54.558C221.32 55.1927 222.957 55.51 224.771 55.51ZM244.011 55H248.635V34.838H256.353V30.52H236.293V34.838H244.011V55Z" fill="url(#paint0_linear)"/>
<g clip-path="url(#clip1)">
<g style="mix-blend-mode:screen" opacity="0.82">
<path style="mix-blend-mode:screen" opacity="0.82" d="M736.723 361.766C785.786 429.883 836.304 495.898 885.544 563.87C865.938 578.8 879.17 556.364 885.544 563.87C863.463 582.375 840.008 597.419 817.394 614.582" stroke="url(#paint1_linear)" stroke-width="0.323522" stroke-miterlimit="10"/>
<path style="mix-blend-mode:screen" opacity="0.82" d="M731.838 188.261L851.768 212.395L837.145 137.549L731.838 188.261Z" stroke="url(#paint2_linear)" stroke-width="0.323522" stroke-miterlimit="10"/>
<path style="mix-blend-mode:screen" opacity="0.82" d="M885.463 563.87L922.797 506.315L740.687 502.352L885.463 563.87Z" stroke="url(#paint3_linear)" stroke-width="0.323522" stroke-miterlimit="10"/>
<path style="mix-blend-mode:screen" opacity="0.82" d="M731.838 188.261L740.687 502.352L662.232 368.479L731.838 188.261Z" stroke="url(#paint4_linear)" stroke-width="0.323522" stroke-miterlimit="10"/>
<path style="mix-blend-mode:screen" opacity="0.82" d="M677.519 516.49L722.521 553.663L740.686 502.352L677.519 516.49Z" stroke="url(#paint5_linear)" stroke-width="0.323522" stroke-miterlimit="10"/>
<path style="mix-blend-mode:screen" opacity="0.82" d="M599 426.858L740.687 502.352L662.232 368.479L599 426.858Z" stroke="url(#paint6_linear)" stroke-width="0.323522" stroke-miterlimit="10"/>
<path style="mix-blend-mode:screen" opacity="0.82" d="M684.41 112.023L731.838 188.261L722.407 21.5012L684.41 112.023Z" stroke="url(#paint7_linear)" stroke-width="0.323522" stroke-miterlimit="10"/>
<path style="mix-blend-mode:screen" opacity="0.82" d="M740.687 502.352L922.797 506.315L856.685 350.96L740.687 502.352Z" stroke="url(#paint8_linear)" stroke-width="0.323522" stroke-miterlimit="10"/>
<path style="mix-blend-mode:screen" opacity="0.82" d="M662.232 368.479L856.685 350.96L740.687 502.352L662.232 368.479Z" stroke="url(#paint9_linear)" stroke-width="0.323522" stroke-miterlimit="10"/>
<path style="mix-blend-mode:screen" opacity="0.82" d="M856.685 350.96L953.742 370.663L740.687 502.352L856.685 350.96Z" stroke="url(#paint10_linear)" stroke-width="0.323522" stroke-miterlimit="10"/>
<path style="mix-blend-mode:screen" opacity="0.82" d="M731.838 188.261L856.685 350.96L763.818 128.652L731.838 188.261Z" stroke="url(#paint11_linear)" stroke-width="0.323522" stroke-miterlimit="10"/>
<path style="mix-blend-mode:screen" opacity="0.82" d="M722.553 21.1292L763.818 128.652L821.988 10L722.812 20.5306L722.553 21.1292Z" stroke="url(#paint12_linear)" stroke-width="0.323522" stroke-miterlimit="10"/>
<path style="mix-blend-mode:screen" opacity="0.82" d="M1106.88 403.71L1196.14 577.587L1006.35 523.575L1106.88 403.71Z" stroke="url(#paint13_linear)" stroke-width="0.323522" stroke-miterlimit="10"/>
<path style="mix-blend-mode:screen" opacity="0.82" d="M1189.22 398.987L1117.44 603.97L1033.6 585.044L1189.22 398.987Z" stroke="url(#paint14_linear)" stroke-width="0.323522" stroke-miterlimit="10"/>
<path style="mix-blend-mode:screen" opacity="0.82" d="M1106.88 403.71L1189.22 398.987" stroke="url(#paint15_linear)" stroke-width="0.323522" stroke-miterlimit="10"/>
<path style="mix-blend-mode:screen" opacity="0.82" d="M1106.88 403.71L1033.6 585.044L1189.22 398.987L1106.88 403.71Z" stroke="url(#paint16_linear)" stroke-width="0.323522" stroke-miterlimit="10"/>
<path style="mix-blend-mode:screen" opacity="0.82" d="M1060.21 657.675L903.289 640.173L1135.35 581.955L1060.21 657.675Z" stroke="url(#paint17_linear)" stroke-width="0.323522" stroke-miterlimit="10"/>
<path style="mix-blend-mode:screen" opacity="0.82" d="M1100.52 329.98L1189.22 398.987" stroke="url(#paint18_linear)" stroke-width="0.323522" stroke-miterlimit="10"/>
<path style="mix-blend-mode:screen" opacity="0.82" d="M1189.22 398.987L1106.88 403.71L1100.52 329.98L1189.22 398.987Z" stroke="url(#paint19_linear)" stroke-width="0.323522" stroke-miterlimit="10"/>
<path style="mix-blend-mode:screen" opacity="0.82" d="M1155.73 111.473L1091 321.018L1006.61 307.689L1155.73 111.473Z" stroke="url(#paint20_linear)" stroke-width="0.323522" stroke-miterlimit="10"/>
<path style="mix-blend-mode:screen" opacity="0.82" d="M1073.66 121.68L1006.61 307.689L1155.73 111.473L1073.66 121.68Z" stroke="url(#paint21_linear)" stroke-width="0.323522" stroke-miterlimit="10"/>
</g>
</g>
</g>
<defs>
<filter id="filter0_f" x="777.99" y="266.551" width="1026.19" height="975.537" filterUnits="userSpaceOnUse" color-interpolation-filters="sRGB">
<feFlood flood-opacity="0" result="BackgroundImageFix"/>
<feBlend mode="normal" in="SourceGraphic" in2="BackgroundImageFix" result="shape"/>
<feGaussianBlur stdDeviation="100" result="effect1_foregroundBlur"/>
</filter>
<filter id="filter1_f" x="-492.902" y="-415.674" width="823.979" height="662.886" filterUnits="userSpaceOnUse" color-interpolation-filters="sRGB">
<feFlood flood-opacity="0" result="BackgroundImageFix"/>
<feBlend mode="normal" in="SourceGraphic" in2="BackgroundImageFix" result="shape"/>
<feGaussianBlur stdDeviation="60" result="effect1_foregroundBlur"/>
</filter>
<linearGradient id="paint0_linear" x1="6.57746" y1="10.5" x2="140.83" y2="178.756" gradientUnits="userSpaceOnUse">
<stop stop-color="#AE67FA"/>
<stop offset="0.973958" stop-color="#F49867"/>
</linearGradient>
<linearGradient id="paint1_linear" x1="61583.7" y1="31348.6" x2="69853.5" y2="17303.7" gradientUnits="userSpaceOnUse">
<stop stop-color="#B2DEFF"/>
<stop offset="1" stop-color="#9FB7E3"/>
</linearGradient>
<linearGradient id="paint2_linear" x1="-101867" y1="-153646" x2="-104626" y2="-158773" gradientUnits="userSpaceOnUse">
<stop stop-color="#B2DEFF"/>
<stop offset="1" stop-color="#9FB7E3"/>
</linearGradient>
<linearGradient id="paint3_linear" x1="-131209" y1="-206091" x2="-137794" y2="-218331" gradientUnits="userSpaceOnUse">
<stop stop-color="#B2DEFF"/>
<stop offset="1" stop-color="#9FB7E3"/>
</linearGradient>
<linearGradient id="paint4_linear" x1="-139833" y1="-48709.1" x2="-146314" y2="-60756.3" gradientUnits="userSpaceOnUse">
<stop stop-color="#B2DEFF"/>
<stop offset="1" stop-color="#9FB7E3"/>
</linearGradient>
<linearGradient id="paint5_linear" x1="2609.19" y1="12440.3" x2="4715.2" y2="12440.3" gradientUnits="userSpaceOnUse">
<stop stop-color="#B2DEFF"/>
<stop offset="1" stop-color="#9FB7E3"/>
</linearGradient>
<linearGradient id="paint6_linear" x1="-139511" y1="-151475" x2="-145978" y2="-163496" gradientUnits="userSpaceOnUse">
<stop stop-color="#B2DEFF"/>
<stop offset="1" stop-color="#9FB7E3"/>
</linearGradient>
<linearGradient id="paint7_linear" x1="11498.5" y1="18743.6" x2="15603.5" y2="18743.6" gradientUnits="userSpaceOnUse">
<stop stop-color="#B2DEFF"/>
<stop offset="1" stop-color="#9FB7E3"/>
</linearGradient>
<linearGradient id="paint8_linear" x1="-158504" y1="-195611" x2="-167499" y2="-212332" gradientUnits="userSpaceOnUse">
<stop stop-color="#B2DEFF"/>
<stop offset="1" stop-color="#9FB7E3"/>
</linearGradient>
<linearGradient id="paint9_linear" x1="-170751" y1="-220453" x2="-179611" y2="-236922" gradientUnits="userSpaceOnUse">
<stop stop-color="#B2DEFF"/>
<stop offset="1" stop-color="#9FB7E3"/>
</linearGradient>
<linearGradient id="paint10_linear" x1="-180050" y1="-245751" x2="-184965" y2="-254886" gradientUnits="userSpaceOnUse">
<stop stop-color="#B2DEFF"/>
<stop offset="1" stop-color="#9FB7E3"/>
</linearGradient>
<linearGradient id="paint11_linear" x1="-135861" y1="-133059" x2="-144686" y2="-149462" gradientUnits="userSpaceOnUse">
<stop stop-color="#B2DEFF"/>
<stop offset="1" stop-color="#9FB7E3"/>
</linearGradient>
<linearGradient id="paint12_linear" x1="27555" y1="13219.5" x2="35693.7" y2="13219.5" gradientUnits="userSpaceOnUse">
<stop stop-color="#B2DEFF"/>
<stop offset="1" stop-color="#9FB7E3"/>
</linearGradient>
<linearGradient id="paint13_linear" x1="-132421" y1="-214822" x2="-149999" y2="-208277" gradientUnits="userSpaceOnUse">
<stop stop-color="#B2DEFF"/>
<stop offset="1" stop-color="#9FB7E3"/>
</linearGradient>
<linearGradient id="paint14_linear" x1="-134087" y1="-260526" x2="-153198" y2="-253410" gradientUnits="userSpaceOnUse">
<stop stop-color="#B2DEFF"/>
<stop offset="1" stop-color="#9FB7E3"/>
</linearGradient>
<linearGradient id="paint15_linear" x1="-18396.4" y1="2307.96" x2="-22170.2" y2="3713.11" gradientUnits="userSpaceOnUse">
<stop stop-color="#B2DEFF"/>
<stop offset="1" stop-color="#9FB7E3"/>
</linearGradient>
<linearGradient id="paint16_linear" x1="-126030" y1="-238962" x2="-145209" y2="-231821" gradientUnits="userSpaceOnUse">
<stop stop-color="#B2DEFF"/>
<stop offset="1" stop-color="#9FB7E3"/>
</linearGradient>
<linearGradient id="paint17_linear" x1="-99906.2" y1="-71890.7" x2="-132167" y2="-59878.8" gradientUnits="userSpaceOnUse">
<stop stop-color="#B2DEFF"/>
<stop offset="1" stop-color="#9FB7E3"/>
</linearGradient>
<linearGradient id="paint18_linear" x1="-53732.7" y1="-88452.4" x2="-56783.3" y2="-87316.6" gradientUnits="userSpaceOnUse">
<stop stop-color="#B2DEFF"/>
<stop offset="1" stop-color="#9FB7E3"/>
</linearGradient>
<linearGradient id="paint19_linear" x1="-56217.8" y1="-95162.3" x2="-60306.4" y2="-93640" gradientUnits="userSpaceOnUse">
<stop stop-color="#B2DEFF"/>
<stop offset="1" stop-color="#9FB7E3"/>
</linearGradient>
<linearGradient id="paint20_linear" x1="-157718" y1="-79993.5" x2="-175921" y2="-72184.3" gradientUnits="userSpaceOnUse">
<stop stop-color="#B2DEFF"/>
<stop offset="1" stop-color="#9FB7E3"/>
</linearGradient>
<linearGradient id="paint21_linear" x1="-155879" y1="-75771.5" x2="-174149" y2="-67933.5" gradientUnits="userSpaceOnUse">
<stop stop-color="#B2DEFF"/>
<stop offset="1" stop-color="#9FB7E3"/>
</linearGradient>
<clipPath id="clip0">
<rect width="1152" height="700" fill="white"/>
</clipPath>
<clipPath id="clip1">
<rect width="667.41" height="701.59" fill="white" transform="translate(674.905 -72)"/>
</clipPath>
</defs>
</svg>
